<mxfile host="app.diagrams.net" modified="2023-05-05T17:18:15.864Z" agent="Mozilla/5.0 (Macintosh; Intel Mac OS X 10_15_7) AppleWebKit/537.36 (KHTML, like Gecko) Chrome/112.0.0.0 Safari/537.36" version="21.2.1" etag="x8bhiwoiuJK47S4m2qP5" type="github">
  <diagram name="第 1 页" id="Ndp3OoW7pC8nN6eDWejB">
    <mxGraphModel>
      <root>
        <mxCell id="0" />
        <mxCell id="1" parent="0" />
      </root>
    </mxGraphModel>
  </diagram>
</mxfile>
